<?xml version="1.0" encoding="UTF-8"?>
<svg id="Capa_1" data-name="Capa 1" xmlns="http://www.w3.org/2000/svg" viewBox="0 0 1080 1080">
  <defs>
    <style>
      .cls-1 {
        fill: #346ea9;
      }
    </style>
  </defs>
  <path class="cls-1" d="M512.05,325.16c5.88,23.55,23.54,100.89-52.98,111.83-51.45,5.12-62.41-64.57-59.21-93.76.33-2.98.42-6.42.23-9.84-1.82-30.84-27.42-55.33-58.73-55.33s-58.87,26.38-58.87,58.87c0,16.24,6.59,31.02,17.31,41.66l.06.07c1.66,1.46,3.36,2.94,5,4.41,16.25,14.47,32.49,29.66,48.27,48.03,0,0,52.97,58.86,11.77,88.29-32.14,22.95-57.1-4.24-66.56-17.31-2.01-2.83-3.3-4.95-3.84-5.82-.17-.3-.23-.42-.23-.42-10.77-14.3-27.84-23.54-47.09-23.54-32.49,0-58.86,26.36-58.86,58.86,0,22.96,13.18,42.85,32.37,52.56,14.65,12.13,117.78,9.18,109.25,158.63,0,.53,0,1.06-.07,1.65-.17,3.6-.3,7.18-.3,10.84,0,120.24,97.53,217.77,217.78,217.77,64.58,0,122.66-28.13,162.51-72.86,10.97-13.13,19.08-26.83,27.61-38.67,51.21-59.15,102.18-77.56,181.93-49.51,1.87.66,3.6,1.59,5.41,2.42,8.83,3.59,18.54,5.58,28.67,5.58,42.26,0,76.52-34.25,76.52-76.52s-34.25-76.52-76.52-76.52c-10.12,0-19.84,2.01-28.67,5.6-2.59,1.29-5.18,2.47-7.76,3.65h-.06c-92.53,40.49-187.47-17.25-198.95-91.64-11.53-92.29,39.14-156.33,89.17-193.54.3-.23.65-.47,1-.7.65-.47,1.36-1,2.01-1.46,15.54-11.78,25.55-30.5,25.55-51.5,0-35.8-28.96-64.75-64.75-64.75s-64.75,28.95-64.75,64.75c0,4.29.41,8.53,1.24,12.6.06.23.06.47.11.7,10.01,57.44-36.67,74.98-36.67,74.98,0,0-76.52,29.43-91.58-46.62-8.18-68.8,20.25-105.88,36.95-143.78,0-.07.07-.07.07-.12,3.64-7.12,6.17-11.71,6.88-12.89.07-.17.12-.28.12-.28,4.12-9.77,6.36-20.49,6.36-31.73,0-45.5-36.91-82.39-82.41-82.39s-82.39,36.9-82.39,82.39c0,14.95,3.99,28.96,10.94,41.03q.06.06.06.11c15.61,27.54,28.32,58.21,36.09,94.23Z"/>
  <circle class="cls-1" cx="114.74" cy="755.25" r="64.74"/>
  <circle class="cls-1" cx="903.45" cy="178.43" r="70.63"/>
  <circle class="cls-1" cx="885.8" cy="914.17" r="52.97"/>
</svg>